<svg xmlns="http://www.w3.org/2000/svg" viewBox="0 0 500 294" class="logo_edW0g" fill="#fff"><path fill="#ffef00" d="M398.9 212.7H498v79.4h-99.1l-24.7-23.2v-32.8z"/><path d="M117.7 95c0-25-26.2-30.2-26.8-30.4l1.9-.7c1.6-.8 3.1-1.8 4.4-3 1.8-1.5 3.6-3.2 5.2-4.9 1.9-2.2 3.4-4.7 4.5-7.5 1.3-3.1 1.9-6.5 1.9-9.8 0-9-4.1-16.8-12.2-23.3-8.2-6.5-19.3-9.8-33.4-9.8H2v125.3h64.7c16.6-.1 51-3.2 51-35.9zM42.5 34.8h14.9c2.7-.1 5.3.8 7.3 2.6 3.6 3.4 3.8 9 .4 12.6l-.4.4c-2 1.8-4.6 2.7-7.3 2.6H42.5V34.8zm0 67V79.3h19.1c3.2-.1 6.4 1.1 8.8 3.2 2.3 2 3.5 4.9 3.5 8 0 3-1.2 6-3.5 8-2.4 2.2-5.5 3.4-8.8 3.3H42.5zM123.2 203.2l1.9-.7c1.6-.8 3.1-1.8 4.4-3 1.8-1.5 3.6-3.2 5.2-4.9 1.9-2.2 3.4-4.7 4.5-7.5 1.3-3.1 1.9-6.5 1.9-9.8 0-9-4.1-16.8-12.2-23.3-8.2-6.5-19.3-9.8-33.4-9.8h-61v125.2h64.6c16.6 0 51-3.1 51-35.8-.2-25-26.4-30.2-26.9-30.4zm-48.3-29.7h14.8c2.7-.1 5.3.8 7.3 2.6 3.6 3.4 3.8 9 .4 12.6-.1.2-.3.3-.4.4-2 1.8-4.6 2.7-7.3 2.6H74.8l.1-18.2zm27.7 63.7c-2.4 2.2-5.5 3.4-8.8 3.3h-19V218h19c3.2-.1 6.4 1.1 8.8 3.2 2.3 2 3.5 4.9 3.5 7.9.1 3.1-1.2 6.1-3.5 8.1zM221.4 100.4h-60.5V80.7h49.4V52h-49.4V36h60.7V5.5H120.4v125.3h101zM325 5.5V36h33.1v94.8h40.3V36h33.1V5.5zM270 101.2c-4.3-.1-8.5-1.2-12.3-3.2-4.2-2.2-7.1-3.9-8.5-5.2-.8-.8-1.5-1.4-2.1-2l-23.9 22.7 1.5 1.5c2.1 2 4.3 3.8 6.7 5.4 3.4 2.3 6.9 4.4 10.6 6.3 4.8 2.4 9.8 4.2 14.9 5.4 6 1.5 12.2 2.2 18.5 2.2 15.8 0 28.5-4.1 37.8-12.3 9.4-8.2 14.1-18.1 14.1-29.7.1-6.1-1.3-12.2-4.1-17.7-2.3-4.6-5.8-8.6-10.1-11.4-4.2-2.6-8.6-5-13.1-6.9-3.9-1.7-7.9-3.1-12.1-4.2l-1.1-.3c-3.5-.8-6.9-2-10.1-3.7-2.7-1.5-4-3.2-4-5.1 0-2.3 1-4.4 2.8-5.8 1.8-1.5 4.5-2.3 7.9-2.3 5.9-.2 11.6 2.1 15.8 6.3l24-22.8-.4-.5c-1.6-1.8-3.4-3.3-5.4-4.6-2.9-1.9-5.9-3.6-9-5.2-4.2-2-8.7-3.5-13.3-4.5-5.6-1.3-11.3-1.9-17.1-1.9-15 0-27.1 4-36.3 11.9-9.2 8-13.7 17.3-13.7 28-.1 5.3.9 10.5 3 15.4 1.8 4.1 4.4 7.8 7.8 10.8 3.2 2.7 6.8 5.1 10.5 7.1 3.2 1.7 6.4 3.1 9.8 4.3.6.2 1.2.5 1.9.7 3.9 1.3 7.5 2.4 10.7 3.5 2.7.9 5.3 2.1 7.8 3.5 2 1.2 3.1 2.7 3.1 4.4 0 2.7-1.2 5.3-3.3 7-2.3 2-5.4 2.9-9.3 2.9zM221.6 218.6c-.2 8.3-7.1 14.9-15.4 14.7-8-.2-14.5-6.7-14.7-14.7v-74.4H151v72.5c0 29.9 24.2 54.1 54.1 54.1h2.5c29.9 0 54.1-24.2 54.1-54.1v-72.5h-40.2v74.4zM357.5 144.2L331 186.8l-26.5-42.6h-40.6l46.8 80.6v44.7h40.6v-44.7l46.9-80.6zM396.5 180.8h2.3l-.1 7h1v-7h2.3v-.8h-5.5zM406.6 186.8l-2.4-6.8h-1.3v7.8h.9v-6.6l2.3 6.6h.9l2.4-6.6v6.6h.9V180H409zM411 189.4h.8l3-9.6h-.8zM419.4 186.8L417 180h-1.3l-.1 7.8h.9v-6.6l2.4 6.6h.9l2.2-6.6v6.6h1V180h-1.3zM427.9 187.2c-1.7 0-2.7-1.2-2.7-3.2v-.1c0-2 1.1-3.2 2.7-3.2 1.1-.1 2.1.7 2.2 1.8h.9c-.2-1.6-1.6-2.7-3.2-2.6h-.3c-2 .2-3.6 1.9-3.4 4v.1c0 2.3 1.4 3.9 3.6 3.9 1.6.2 3.1-1 3.3-2.7h-.9c0 1.2-1 2.1-2.2 2z"/><path d="M393.9 252.4c0 2.7-2.2 4.9-4.9 4.9s-4.9-2.2-4.9-4.9 2.2-4.9 4.9-4.9c2.7-.1 4.9 2.1 4.9 4.9 0-.1 0-.1 0 0" fill="#142029"/></svg>